<?xml version="1.0" standalone="no"?>
<!DOCTYPE svg PUBLIC "-//W3C//DTD SVG 20010904//EN"
        "http://www.w3.org/TR/2001/REC-SVG-20010904/DTD/svg10.dtd">
<svg version="1.0" xmlns="http://www.w3.org/2000/svg"
     width="512.000000pt" height="512.000000pt" viewBox="0 0 512.000000 512.000000"
     preserveAspectRatio="xMidYMid meet">

    <g transform="translate(0.000000,512.000000) scale(0.100000,-0.100000)"
       fill="#000000" stroke="none">
        <path d="M1897 4845 c-52 -21 -146 -71 -157 -84 -3 -3 -38 -28 -78 -55 -99
-67 -296 -249 -377 -350 -44 -55 -161 -159 -284 -256 -46 -35 -95 -83 -110
-105 -25 -39 -26 -45 -27 -195 0 -145 -28 -379 -64 -550 -5 -25 -19 -97 -30
-159 -12 -68 -29 -129 -42 -150 -11 -20 -26 -54 -33 -76 -8 -26 -23 -48 -45
-62 -26 -18 -29 -24 -16 -29 11 -4 14 -13 10 -29 -3 -13 -2 -30 2 -37 4 -7 7
-75 5 -152 -3 -129 -1 -138 15 -132 21 8 34 -9 34 -46 0 -16 5 -28 10 -28 6 0
10 -20 10 -43 0 -50 7 -62 27 -45 11 9 24 2 61 -34 60 -57 107 -90 157 -110
217 -86 239 -103 217 -167 -17 -48 3 -308 32 -440 30 -134 68 -260 107 -359
l29 -73 -23 -47 c-13 -26 -58 -112 -101 -192 -88 -164 -110 -234 -131 -410
-19 -164 -19 -258 2 -353 l18 -77 63 0 c57 0 63 2 57 18 -32 78 -38 333 -12
462 37 178 132 420 203 515 12 17 46 75 75 130 84 158 179 271 282 334 44 26
40 6 -16 -71 -29 -41 -58 -88 -64 -104 -37 -103 -54 -175 -51 -224 l3 -54 60
53 c162 143 321 247 575 378 96 50 193 100 214 112 131 74 402 84 465 17 32
-34 13 -43 -104 -51 -55 -4 -122 -15 -150 -25 -131 -46 -154 -56 -205 -86 -30
-18 -92 -67 -137 -108 -69 -65 -89 -91 -131 -174 -67 -130 -73 -154 -81 -322
-8 -138 -10 -152 -55 -280 -54 -155 -112 -375 -122 -461 l-7 -59 51 0 50 0 11
73 c20 128 63 289 138 520 31 96 34 113 24 150 -8 33 -7 57 4 102 17 72 18 88
5 80 -34 -21 18 120 76 206 102 151 262 257 455 301 l95 21 49 -24 c63 -32
135 -96 135 -121 0 -10 19 -42 42 -70 40 -47 43 -54 46 -121 3 -50 -3 -98 -18
-157 -23 -92 -64 -206 -84 -230 -14 -17 -102 -173 -133 -235 -11 -22 -35 -71
-54 -110 -18 -38 -39 -76 -46 -83 -7 -7 -43 -75 -79 -150 -37 -75 -69 -140
-71 -144 -2 -5 20 -8 49 -8 l54 0 101 203 c56 111 111 214 123 227 l21 25 -5
-35 c-7 -39 -116 -273 -157 -335 -14 -22 -31 -50 -38 -62 l-12 -23 96 0 95 0
41 88 c22 48 44 108 49 135 5 26 14 56 19 66 6 10 15 40 21 65 6 26 26 87 45
135 34 89 100 338 127 486 20 108 8 252 -28 333 -14 31 -32 72 -40 89 -7 18
-38 52 -69 75 -34 27 -60 57 -69 80 -23 57 -79 104 -153 129 l-65 21 4 72 c4
87 29 141 100 222 50 58 55 60 227 130 97 39 204 85 239 103 34 17 67 29 72
26 6 -4 10 -103 10 -243 0 -258 7 -339 46 -536 70 -350 202 -675 402 -986 87
-134 172 -237 304 -368 l122 -122 71 0 72 0 24 53 c13 28 57 108 98 177 103
176 171 314 253 513 100 244 144 375 173 511 24 114 25 132 25 463 0 308 -2
356 -21 456 -50 266 -99 418 -200 620 -173 348 -324 538 -689 866 -58 52 -113
106 -122 121 -9 14 -36 37 -59 50 -43 26 -100 73 -241 199 -46 41 -97 86 -113
100 -17 14 -64 56 -105 92 -184 161 -429 359 -550 444 -195 137 -207 144 -320
175 -122 34 -279 37 -456 11 -82 -13 -188 -36 -236 -51 -49 -16 -88 -25 -88
-21 0 9 94 71 108 71 6 0 13 4 16 8 11 18 -94 9 -147 -13z m663 -155 c10 -6
30 -10 44 -10 43 0 198 -60 279 -108 120 -71 234 -161 327 -259 191 -200 234
-267 352 -548 27 -66 58 -134 69 -151 10 -17 19 -48 19 -68 0 -46 59 -177 89
-198 15 -11 30 -43 47 -104 l25 -89 -16 -180 c-13 -130 -22 -188 -35 -210 -10
-16 -21 -43 -24 -60 -4 -16 -26 -50 -49 -76 -23 -25 -54 -62 -69 -82 -74 -96
-393 -268 -598 -322 -36 -9 -76 -23 -90 -30 -14 -7 -75 -25 -135 -40 -61 -15
-126 -33 -145 -40 -19 -7 -66 -23 -104 -35 -38 -12 -149 -50 -245 -84 -217
-78 -281 -91 -446 -91 l-130 0 -120 54 c-66 29 -167 66 -223 82 -57 16 -141
44 -185 61 -99 38 -267 139 -316 190 -20 21 -43 38 -52 38 -20 0 -29 20 -29
64 0 18 -7 41 -15 52 -8 10 -15 33 -15 50 0 17 -5 45 -11 62 -12 36 8 134 35
174 9 12 16 30 16 39 0 10 20 30 45 46 24 15 44 30 45 33 0 3 -12 6 -27 5 -23
0 -27 4 -24 20 2 11 4 35 4 53 1 36 11 40 40 15 15 -14 34 -18 84 -16 65 2 65
2 48 -18 -11 -11 -26 -17 -36 -14 -23 7 -31 -7 -21 -36 l9 -22 15 21 c8 12 18
19 21 16 4 -4 18 1 32 10 54 36 185 61 185 36 0 -5 -6 -11 -12 -11 -7 -1 -1
-4 15 -8 l28 -6 -30 -36 c-17 -20 -28 -39 -25 -41 2 -3 44 14 92 38 125 63
192 78 334 72 65 -3 115 -1 112 3 -3 5 -11 9 -18 9 -7 0 -21 8 -30 19 -25 27
-80 32 -176 17 -73 -12 -87 -12 -96 0 -9 11 -18 12 -37 5 -14 -5 -28 -7 -31
-4 -14 14 -6 117 11 135 25 28 21 88 -19 288 -16 78 -45 164 -77 229 -33 65
-31 84 5 70 33 -12 34 -12 34 10 0 18 -81 101 -99 101 -5 0 -11 -12 -13 -27
-3 -23 -10 -29 -48 -38 -112 -29 -175 -114 -204 -275 -18 -98 -23 -236 -12
-298 8 -37 5 -47 -19 -84 l-29 -43 -8 30 c-14 47 22 349 61 520 5 22 15 67 21
100 25 121 56 170 149 232 104 70 163 70 208 2 l27 -42 9 34 c6 21 4 48 -4 77
-11 38 -18 47 -56 63 -25 10 -51 19 -58 19 -47 0 -12 63 83 151 69 63 242 199
299 234 195 121 261 157 340 185 71 25 102 31 132 26 26 -4 57 0 97 14 52 18
77 19 207 15 82 -3 157 -10 167 -15z m1080 -652 c25 -21 114 -93 199 -160 85
-68 162 -136 170 -152 25 -46 71 -86 99 -86 20 0 346 -328 413 -415 21 -27 58
-75 82 -105 224 -285 324 -512 418 -945 77 -354 39 -818 -101 -1235 -31 -93
-103 -278 -121 -309 -5 -9 -46 -92 -93 -186 -120 -244 -215 -410 -234 -410
-26 0 -177 140 -289 270 -69 79 -167 221 -178 256 -4 13 -33 78 -65 144 -31
66 -69 152 -85 190 -15 39 -31 79 -36 90 -4 11 -25 76 -44 145 -20 69 -43 143
-50 165 -35 103 -68 267 -104 510 -5 39 -11 169 -12 290 l-3 220 49 48 c26 26
52 47 56 47 5 0 6 -33 3 -72 -9 -113 43 -456 86 -563 6 -16 16 -64 20 -105 26
-219 43 -305 59 -296 12 8 -31 397 -49 441 -18 45 -29 177 -24 299 4 125 5
130 38 185 79 131 193 407 247 596 26 89 40 119 50 103 12 -18 36 7 43 45 7
35 41 97 53 97 30 0 165 -171 157 -197 -5 -14 -4 -15 4 -4 9 12 16 10 46 -13
20 -15 36 -23 36 -17 0 5 -3 11 -7 13 -5 2 -34 42 -66 90 -32 48 -78 109 -101
135 -58 65 -116 143 -117 157 0 6 -16 31 -34 56 -82 108 -98 136 -97 163 1 15
-2 27 -8 27 -5 0 -10 -4 -10 -10 0 -23 -35 -7 -74 33 -323 337 -424 460 -426
521 0 18 1 18 28 0 15 -9 47 -35 72 -56z m-2620 -77 c0 -6 -5 -13 -10 -16 -6
-4 -17 -21 -24 -38 l-14 -32 -1 28 c-1 15 5 36 11 47 13 21 38 27 38 11z m146
-385 c0 0 8 -13 17 -28 22 -35 21 -48 -2 -48 -18 0 -91 -71 -91 -89 0 -5 9
-11 21 -14 32 -9 19 -39 -25 -60 l-39 -18 5 -92 c4 -69 12 -109 33 -160 15
-38 24 -71 21 -75 -4 -3 -24 14 -46 38 -71 83 -76 222 -14 423 32 100 62 142
97 131 12 -3 22 -7 23 -8z m2674 -311 c14 -19 14 -19 -2 -6 -10 7 -18 18 -18
24 0 6 1 8 3 6 1 -2 9 -13 17 -24z m250 -30 c0 -16 -6 -25 -16 -25 -11 0 -14
5 -10 16 3 9 6 20 6 25 0 5 5 9 10 9 6 0 10 -11 10 -25z m50 -76 c0 -4 -7 -20
-15 -35 -8 -16 -20 -55 -27 -86 -12 -58 -28 -78 -28 -35 0 12 10 62 22 111 19
79 23 87 35 71 7 -11 13 -22 13 -26z m-116 -4 c3 -8 1 -15 -4 -15 -6 0 -10 7
-10 15 0 8 2 15 4 15 2 0 6 -7 10 -15z m156 3 c0 -7 -9 -35 -20 -63 l-19 -50
5 50 c7 63 11 75 24 75 5 0 10 -6 10 -12z m-3184 -152 c18 -14 18 -16 2 -32
-14 -15 -21 -15 -47 -4 -30 12 -39 29 -24 43 11 12 48 8 69 -7z m3064 -81 c0
-8 -4 -15 -10 -15 -5 0 -10 7 -10 15 0 8 5 15 10 15 6 0 10 -7 10 -15z m-85
-246 l-25 -64 5 48 c5 52 37 123 42 96 2 -9 -8 -45 -22 -80z m-35 -85 c0 -4
-9 -25 -19 -48 -11 -23 -32 -72 -46 -111 -15 -38 -33 -79 -40 -91 -7 -11 -16
-31 -19 -45 -3 -13 -3 0 -1 30 3 35 18 81 44 135 22 45 43 94 46 109 4 15 13
27 21 27 8 0 14 -3 14 -6z m-90 -60 c0 -21 -18 -54 -30 -54 -11 0 -13 30 -4
54 8 21 34 21 34 0z m-1066 -550 c23 -23 19 -56 -12 -100 -29 -42 -92 -165
-92 -181 0 -6 -37 -25 -82 -43 -210 -83 -605 -313 -759 -442 -25 -21 -49 -38
-53 -38 -14 0 4 82 30 139 13 30 38 66 54 79 17 14 30 33 30 43 0 10 5 21 10
24 14 9 12 -7 -5 -48 -34 -82 0 -61 45 27 14 27 68 95 120 150 52 56 113 128
135 160 77 112 79 114 200 146 61 16 162 45 225 63 138 41 135 41 154 21z
m-1413 -24 c18 -10 18 -13 -17 -58 -32 -43 -64 -71 -64 -58 0 3 9 25 19 48 11
24 22 51 25 61 6 20 10 21 37 7z m87 -39 c9 -6 29 -12 45 -16 15 -3 27 -12 27
-20 0 -7 -21 -44 -47 -82 -49 -71 -91 -141 -128 -209 -19 -36 -20 -43 -7 -63
13 -18 13 -26 2 -47 -8 -13 -18 -23 -24 -21 -17 5 -35 110 -40 227 -3 58 -2
93 0 78 6 -30 14 -34 31 -17 7 7 19 9 28 5 17 -6 17 -18 -1 -73 -3 -10 7 -4
25 17 17 19 31 38 31 42 0 4 14 29 30 55 30 47 38 106 14 96 -15 -5 -28 13
-19 27 8 12 11 12 33 1z m122 -71 c0 -5 -4 -10 -9 -10 -5 0 -13 -9 -16 -21 -4
-11 -9 -19 -11 -16 -8 7 15 57 26 57 5 0 10 -4 10 -10z m26 -73 c-49 -60 -50
-61 -54 -49 -2 7 4 19 12 28 9 8 16 20 16 25 0 5 10 19 22 31 32 32 35 5 4
-35z m514 2 c0 -15 -121 -140 -130 -134 -4 2 -10 21 -13 42 -3 21 -9 48 -12
59 -6 20 -1 22 52 31 81 14 103 15 103 2z m-440 -18 c0 -10 -11 -30 -24 -44
-14 -15 -37 -44 -53 -64 -15 -21 -34 -44 -41 -51 -6 -8 -17 -23 -23 -34 -10
-18 -9 -18 11 -8 11 6 33 28 48 48 57 79 96 122 109 122 7 0 13 -5 13 -12 0
-10 -45 -76 -60 -88 -4 -3 -25 -30 -48 -60 -22 -30 -79 -106 -127 -169 -47
-63 -88 -126 -91 -140 -3 -14 -7 -30 -8 -36 -2 -5 -11 16 -20 49 -10 32 -15
65 -11 74 3 8 0 19 -6 23 -21 13 9 105 54 162 53 67 63 77 78 77 7 0 3 -9 -9
-20 -12 -12 -22 -27 -22 -35 0 -8 -16 -35 -35 -61 -40 -53 -50 -98 -11 -49 14
17 31 41 38 55 14 27 48 74 118 160 25 31 56 71 69 88 27 36 51 42 51 13z
m215 -155 c4 -24 1 -21 -10 13 -22 67 -26 90 -9 52 8 -18 17 -47 19 -65z
m-130 24 c3 -5 1 -10 -4 -10 -6 0 -11 5 -11 10 0 6 2 10 4 10 3 0 8 -4 11 -10z"/>
        <path d="M2460 4428 c-68 -21 -204 -104 -257 -157 -55 -55 -125 -201 -97 -201
3 0 31 23 62 51 133 122 324 193 542 204 64 3 215 -13 245 -27 83 -37 221
-111 247 -133 30 -26 68 -40 89 -33 15 5 -60 85 -108 114 -69 42 -207 112
-243 122 -19 6 -62 20 -94 31 -33 12 -74 21 -91 21 -18 0 -52 7 -75 15 -58 20
-142 18 -220 -7z"/>
        <path d="M2128 4432 c-32 -13 -117 -150 -118 -189 0 -23 15 -14 35 20 35 60
127 159 139 147 14 -14 26 -13 26 4 0 21 -48 31 -82 18z"/>
        <path d="M2560 3970 c-189 -44 -280 -107 -355 -244 -31 -55 -42 -90 -57 -185
-26 -159 -29 -396 -6 -470 10 -29 15 -58 12 -63 -3 -5 2 -15 11 -22 17 -12 16
-14 -5 -29 -39 -27 -14 -31 47 -8 111 44 324 110 401 125 132 27 430 57 496
50 71 -7 152 18 199 61 34 33 34 56 -1 82 -24 18 -28 26 -24 59 3 22 13 50 23
63 26 32 23 64 -9 141 -90 215 -196 345 -328 400 -147 61 -267 73 -404 40z
m287 -166 c130 -30 226 -106 304 -241 43 -76 44 -79 44 -168 0 -73 -3 -90 -15
-90 -8 0 -17 -3 -20 -6 -14 -19 -134 -80 -200 -102 -77 -26 -207 -40 -203 -22
1 6 12 37 24 70 27 75 22 180 -10 244 -24 46 -28 47 -89 26 -50 -18 -105 -8
-110 19 -5 26 22 61 63 81 44 20 40 27 -49 74 -40 21 -73 31 -102 31 -24 0
-44 4 -44 9 0 20 144 74 219 81 116 11 115 11 188 -6z m-149 -351 c-5 -25 -28
-28 -28 -4 0 12 6 21 16 21 9 0 14 -7 12 -17z m592 -218 c16 -19 8 -29 -47
-55 -82 -38 -175 -27 -147 18 10 16 115 50 160 51 12 1 27 -6 34 -14z"/>
        <path d="M2318 3950 c-35 -19 -72 -59 -63 -68 5 -5 115 71 115 81 0 11 -11 8
-52 -13z"/>
        <path d="M2230 3859 c0 -5 5 -7 10 -4 6 3 10 8 10 11 0 2 -4 4 -10 4 -5 0 -10
-5 -10 -11z"/>
        <path d="M2022 3690 c0 -14 2 -19 5 -12 2 6 2 18 0 25 -3 6 -5 1 -5 -13z"/>
        <path d="M2008 3606 c-5 -27 -8 -65 -8 -85 1 -29 3 -33 11 -19 5 10 9 48 7 85
l-3 68 -7 -49z"/>
        <path d="M3005 3050 c-3 -5 1 -10 9 -10 9 0 16 5 16 10 0 6 -4 10 -9 10 -6 0
-13 -4 -16 -10z"/>
        <path d="M2895 3005 c-39 -19 -65 -34 -58 -35 6 0 33 10 60 23 26 13 59 29 73
35 14 6 18 11 10 11 -8 1 -47 -15 -85 -34z"/>
        <path d="M1796 2834 c-33 -8 -104 -28 -159 -44 -113 -34 -212 -39 -270 -15
-20 8 -54 15 -75 15 -23 0 -45 -6 -52 -15 -7 -9 -30 -15 -54 -16 -39 -1 -40
-1 -16 -12 47 -22 69 -43 76 -72 18 -76 48 -122 117 -187 67 -63 71 -69 61
-95 -20 -57 -91 -54 -135 7 -32 44 -72 171 -72 233 0 31 -3 57 -6 57 -4 0 -17
-7 -29 -16 -20 -14 -21 -17 -8 -42 7 -15 17 -54 20 -87 8 -69 57 -179 86 -195
11 -6 20 -17 20 -24 0 -12 66 -46 90 -46 5 0 25 14 44 30 61 54 76 55 221 9
169 -53 186 -55 281 -29 115 32 231 96 383 213 110 84 141 113 171 162 25 42
48 65 73 78 41 19 43 25 24 51 -25 34 -158 33 -172 -2 -6 -15 11 -35 39 -45
33 -12 -100 -174 -218 -266 -53 -43 -165 -94 -266 -124 -117 -34 -165 -40
-198 -24 -15 8 -76 26 -136 42 -124 32 -181 68 -160 102 6 10 20 19 30 21 19
3 71 45 257 209 58 51 117 97 132 103 23 9 25 13 15 25 -15 18 -35 18 -114 -1z
m-402 -163 c3 -5 35 -6 71 -3 53 4 65 2 65 -10 0 -19 -27 -44 -64 -58 -23 -8
-36 -7 -62 5 -35 17 -59 49 -49 65 8 12 32 13 39 1z"/>
        <path d="M835 2780 c-3 -6 1 -7 9 -4 18 7 21 14 7 14 -6 0 -13 -4 -16 -10z"/>
        <path d="M4037 3624 c-9 -10 11 -44 27 -44 18 0 13 44 -5 48 -8 1 -18 0 -22
-4z"/>
        <path d="M4136 2945 c-3 -9 -6 -27 -6 -40 0 -13 -4 -27 -10 -30 -5 -3 -10 -16
-10 -27 0 -31 11 -16 32 44 10 29 14 56 9 61 -5 5 -11 1 -15 -8z"/>
        <path d="M4405 2910 c3 -5 8 -10 11 -10 2 0 4 5 4 10 0 6 -5 10 -11 10 -5 0
-7 -4 -4 -10z"/>
        <path d="M4430 2874 c0 -8 69 -123 86 -144 7 -8 29 -49 50 -90 20 -41 41 -78
47 -81 5 -4 7 -14 4 -24 -4 -9 7 -42 25 -78 43 -83 57 -124 51 -148 -6 -23 19
-121 52 -199 13 -30 28 -70 35 -87 14 -36 30 -44 30 -14 0 33 -82 304 -106
353 -25 50 -30 78 -14 78 16 0 11 32 -13 77 -59 112 -81 150 -103 174 -13 14
-24 30 -24 36 0 5 -22 40 -50 76 -48 63 -70 86 -70 71z"/>
        <path d="M4316 2854 c-3 -9 -6 -28 -5 -42 l1 -27 13 30 c8 17 14 36 15 43 0
17 -17 15 -24 -4z"/>
        <path d="M4088 2773 c-8 -15 -23 -55 -32 -88 -10 -33 -23 -68 -28 -78 -18 -37
-58 -155 -58 -174 0 -10 -9 -28 -19 -40 -16 -16 -52 -126 -51 -151 1 -14 58
107 75 159 9 29 23 68 31 84 22 50 85 227 95 269 12 48 5 57 -13 19z"/>
        <path d="M4137 2553 c-4 -3 -7 -11 -7 -17 0 -6 5 -5 12 2 6 6 9 14 7 17 -3 3
-9 2 -12 -2z"/>
        <path d="M4011 2224 c0 -11 3 -14 6 -6 3 7 2 16 -1 19 -3 4 -6 -2 -5 -13z"/>
        <path d="M3997 2193 c-4 -3 -7 -11 -7 -17 0 -6 5 -5 12 2 6 6 9 14 7 17 -3 3
-9 2 -12 -2z"/>
        <path d="M4065 2039 c-4 -6 -5 -12 -2 -15 2 -3 7 2 10 11 7 17 1 20 -8 4z"/>
        <path d="M3970 1280 c0 -49 20 -155 48 -263 14 -52 41 -92 54 -79 7 7 5 26 -6
59 -30 91 -65 218 -72 263 -11 72 -23 82 -24 20z"/>
        <path d="M4667 1063 c-10 -15 -37 -174 -37 -214 0 -41 15 -61 24 -32 8 26 27
245 22 250 -2 2 -6 1 -9 -4z"/>
        <path d="M4510 536 c0 -31 6 -34 13 -6 3 11 1 23 -4 26 -5 3 -9 -6 -9 -20z"/>
        <path d="M2465 1695 c-47 -17 -79 -19 -70 -5 8 13 -17 13 -52 -1 -15 -6 -43
-12 -61 -15 -18 -2 -54 -15 -81 -28 -68 -35 -258 -226 -224 -226 5 0 35 27 68
60 62 63 123 98 190 111 22 4 82 23 133 43 51 19 109 38 130 41 78 13 92 17
92 26 0 14 -80 10 -125 -6z"/>
        <path d="M1310 1630 c0 -11 7 -20 15 -20 8 0 15 9 15 20 0 11 -7 20 -15 20 -8
0 -15 -9 -15 -20z"/>
        <path d="M1500 1506 c0 -9 -3 -16 -8 -16 -9 0 -35 -40 -29 -46 2 -3 16 11 31
30 15 20 22 37 16 41 -5 3 -10 -1 -10 -9z"/>
        <path d="M1819 941 c-59 -19 -68 -29 -62 -66 6 -37 -9 -85 -39 -124 -22 -29
-23 -53 -4 -112 8 -24 17 -56 20 -70 5 -24 14 -29 76 -44 45 -11 86 -15 113
-11 52 8 134 53 159 86 20 27 20 30 18 186 l-2 102 -49 27 c-39 21 -67 28
-127 31 -42 2 -89 0 -103 -5z m166 -47 c59 -15 65 -19 65 -42 0 -14 -7 -33
-15 -42 -13 -15 -13 -21 2 -58 13 -35 14 -49 5 -81 -14 -44 -70 -89 -123 -97
-37 -6 -115 22 -138 50 -20 24 -11 145 14 182 11 16 22 40 25 54 6 27 41 50
78 50 13 0 52 -7 87 -16z"/>
        <path d="M1433 39 c-29 -17 -53 -33 -53 -35 0 -2 48 -4 108 -3 87 0 103 2 88
12 -10 7 -34 22 -53 35 -18 12 -35 22 -36 22 -1 0 -26 -14 -54 -31z"/>
    </g>
</svg>
